<!--?xml version="1.0" encoding="utf-8"?-->
<!-- Generator: Adobe Illustrator 15.1.0, SVG Export Plug-In . SVG Version: 6.00 Build 0)  -->

<svg version="1.1" id="_x32_" xmlns="http://www.w3.org/2000/svg" xmlns:xlink="http://www.w3.org/1999/xlink" x="0px" y="0px" width="512px" height="512px" viewBox="0 0 512 512" style="width: 64px; height: 64px; opacity: 1;" xml:space="preserve">
<style type="text/css">

	.st0{fill:#4B4B4B;}

</style>
<g>
	<path class="st0" d="M143.228,99.261L48.431,425.167l388.797,0.344l34.328-118L143.228,99.261z M351.384,280.871
		c-3.875,6.406-12.203,8.469-18.609,4.594L181.915,193.23c-6.406-3.859-8.484-12.203-4.609-18.609
		c3.859-6.422,12.203-8.469,18.609-4.609l150.859,92.25C353.196,266.121,355.259,274.449,351.384,280.871z" style="fill: rgb(75, 75, 75);"></path>
	<path class="st0" d="M112.571,79.417c-8.75-2.547-17.922,2.484-20.469,11.234L0.665,404.996c-2.563,8.75,2.484,17.906,11.25,20.468
		c8.734,2.531,17.906-2.5,20.438-11.25l91.453-314.343C126.353,91.121,121.321,81.964,112.571,79.417z" style="fill: rgb(75, 75, 75);"></path>
	<path class="st0" d="M501.056,317.824c-8.063-2.359-16.484,2.281-18.828,10.328l-24.922,85.656
		c-2.344,8.063,2.297,16.484,10.344,18.828s16.484-2.297,18.828-10.328l24.922-85.687
		C513.728,328.589,509.103,320.152,501.056,317.824z" style="fill: rgb(75, 75, 75);"></path>
</g>
</svg>
