<!--?xml version="1.0" encoding="utf-8"?-->
<!-- Generator: Adobe Illustrator 18.1.1, SVG Export Plug-In . SVG Version: 6.00 Build 0)  -->

<svg version="1.1" id="_x32_" xmlns="http://www.w3.org/2000/svg" xmlns:xlink="http://www.w3.org/1999/xlink" x="0px" y="0px" viewBox="0 0 512 512" style="width: 64px; height: 64px; opacity: 1;" xml:space="preserve">
<style type="text/css">
	.st0{fill:#4B4B4B;}
</style>
<g>
	<path class="st0" d="M35.757,286.56v129.389c0,53.05,43,96.051,96.05,96.051h248.386c53.05,0,96.05-43.001,96.05-96.051V286.56
		L256.009,438.74L35.757,286.56z" style="fill: #FFFFFF;"></path>
	<path class="st0" d="M92.231,134.888l-30.818,28.245c-16.502,17.766-25.656,41.108-25.656,65.353v20.769l56.474,39.026V134.888z" style="fill: #FFFFFF;"></path>
	<path class="st0" d="M287.67,13.809C279.497,5.008,268.02,0,256.009,0c-12.028,0-23.505,5.008-31.678,13.809l-67.78,62.127h198.915
		L287.67,13.809z" style="fill: #FFFFFF;"></path>
	<path class="st0" d="M450.587,163.132l-30.818-28.245V288.28l56.473-39.026v-20.769
		C476.243,204.24,467.089,180.899,450.587,163.132z" style="fill: #FFFFFF;"></path>
	<rect x="161.404" y="135.231" class="st0" width="189.193" height="28.237" style="fill: #FFFFFF;"></rect>
	<rect x="161.404" y="211.476" class="st0" width="189.193" height="28.237" style="fill: #FFFFFF;"></rect>
	<rect x="161.404" y="284.89" class="st0" width="107.304" height="28.237" style="fill: #FFFFFF;"></rect>
</g>
</svg>
